PathFileType	4	(X/Y/Z)	C:\Users\Basilio\Documents\Thesis Gigler\squatting_fais\c3dfiles\076\SLS_back_pre2\markers_experimental.trc
DataRate	CameraRate	NumFrames	NumMarkers	Units	OrigDataRate	OrigDataStartFrame	OrigNumFrames
200.000000	200.000000	4	61	mm	200.000000	1703	1947
Frame#	Time	FHD			LBHD			RBHD			C7			T10			CLAV			LSHO			LUUPA			LMUPA			LDUPA			LLEP			LMEP			LRAD			LUL			LRFIN			RSHO			RUPA1			RMUPA			RDUPA			RLEP			RMEP			RRAD			RUL			RUFIN			RASI			USACR			LSACR			RSACR			LTHI1			LTHI2			LTHI3			LTHI4			LLFC			LMFC			LTIB1			LTIB2			LTIB3			LTIB4			LLMAL			LMMAL			LHEE			LMT1			LMT2			LMT5			RTHI			RTHI2			RTHI3			RTHI4			RLFC			RMFC			RTIB1			RTIB2			RTIB3			RTIB4			RLMAL			RMMAL			RHEE			RMT1			RMT2			RMT5			LASI			
		X1	Y1	Z1	X2	Y2	Z2	X3	Y3	Z3	X4	Y4	Z4	X5	Y5	Z5	X6	Y6	Z6	X7	Y7	Z7	X8	Y8	Z8	X9	Y9	Z9	X10	Y10	Z10	X11	Y11	Z11	X12	Y12	Z12	X13	Y13	Z13	X14	Y14	Z14	X15	Y15	Z15	X16	Y16	Z16	X17	Y17	Z17	X18	Y18	Z18	X19	Y19	Z19	X20	Y20	Z20	X21	Y21	Z21	X22	Y22	Z22	X23	Y23	Z23	X24	Y24	Z24	X25	Y25	Z25	X26	Y26	Z26	X27	Y27	Z27	X28	Y28	Z28	X29	Y29	Z29	X30	Y30	Z30	X31	Y31	Z31	X32	Y32	Z32	X33	Y33	Z33	X34	Y34	Z34	X35	Y35	Z35	X36	Y36	Z36	X37	Y37	Z37	X38	Y38	Z38	X39	Y39	Z39	X40	Y40	Z40	X41	Y41	Z41	X42	Y42	Z42	X43	Y43	Z43	X44	Y44	Z44	X45	Y45	Z45	X46	Y46	Z46	X47	Y47	Z47	X48	Y48	Z48	X49	Y49	Z49	X50	Y50	Z50	X51	Y51	Z51	X52	Y52	Z52	X53	Y53	Z53	X54	Y54	Z54	X55	Y55	Z55	X56	Y56	Z56	X57	Y57	Z57	X58	Y58	Z58	X59	Y59	Z59	X60	Y60	Z60	X61	Y61	Z61	

1704	8.515000000000001	-195.1263732910157	1643.24658203125	-1020.830993652344	-322.3395385742188	1566.047973632813	-1127.995971679688	-318.4602355957032	1566.780395507813	-976.0804443359377	-365.6719970703126	1448.053833007813	-1052.808959960938	-387.8025512695314	1128.433349609375	-1046.57666015625	-232.7770233154297	1369.993774414063	-1051.479614257813	-300.2957458496094	1384.314331054688	-1232.92724609375	-312.7754211425782	1179.855346679688	-1292.26708984375	-279.3200683593751	1152.2705078125	-1267.294799804688	-313.1970520019532	1111.571166992188	-1299.34912109375	-330.3888244628907	1057.964965820313	-1300.557983398438	-362.6755065917969	1046.204467773438	-1226.058715820313	-246.7709503173829	825.2720336914065	-1274.526733398438	-287.3403930664063	821.1214599609377	-1326.435546875	-229.1980895996094	739.6193237304689	-1290.945678710938	-298.1800842285157	1379.194946289063	-878.2567138671877	-351.3117065429688	1184.610107421875	-808.5733642578127	-309.8861389160157	1157.924194335938	-804.659851074219	-353.3877868652344	1114.261108398438	-804.1584472656252	-345.9920043945313	1051.134643554688	-800.8446044921877	-340.1466979980469	1036.99365234375	-882.0093994140627	-264.7024230957032	819.3640136718752	-788.5352783203127	-326.4574584960938	820.526794433594	-762.4045410156251	-259.5790405273438	746.9320678710939	-751.6260986328126	-222.5408782958985	954.4976196289065	-925.4119873046877	-389.7535705566407	1020.795532226563	-1032.973022460938	-398.6499328613282	991.3332519531252	-1058.8486328125	-397.1198730468751	993.0689086914065	-1002.589233398438	-319.9623413085938	786.8491210937502	-1188.007568359375	-300.1943969726563	705.5567016601564	-1176.981567382813	-250.074691772461	704.1677856445314	-1169.94873046875	-335.3058776855469	659.1294555664064	-1157.902099609375	-350.7915344238282	500.5763549804689	-1118.850830078125	-308.8549804687501	501.8277282714845	-1006.287658691406	-316.3453063964844	362.5583190917969	-1040.028686523438	-345.4713745117188	303.6761169433594	-1099.251586914063	-313.4046936035157	309.3168029785157	-1065.212524414063	-324.7797851562501	235.8727111816407	-1024.490600585938	-385.3372192382814	106.4727935791016	-1058.632934570313	-354.5197753906251	125.2661437988282	-982.7593994140627	-442.2966308593751	97.90894317626956	-1008.225158691406	-240.7263183593751	53.29372406005861	-995.1429443359377	-235.8152160644532	48.86744308471681	-1033.622436523438	-260.1006164550782	42.46385192871094	-1083.033081054688	-246.6230621337891	723.9111938476564	-816.1204833984377	-191.1808624267578	683.6335449218751	-803.3076782226565	-159.2833862304688	693.6069946289064	-812.857604980469	-193.6045684814454	599.8032836914064	-806.3694458007815	-185.8624725341797	552.5989379882814	-808.4940185546877	-155.7938690185547	531.9841918945314	-915.434997558594	-240.6511383056641	430.5157470703126	-829.9981079101565	-349.8535766601563	437.1856994628907	-831.1510009765627	-321.6295471191407	399.1944885253907	-832.9417114257815	-340.9055480957032	359.2628173828126	-871.614440917969	-490.9370422363282	321.0791931152344	-869.3024902343752	-449.7477416992189	312.2352600097657	-944.5406494140627	-535.8630371093751	348.3375549316407	-924.2811279296877	-417.9542236328126	180.399398803711	-927.397644042969	-418.1733703613282	177.1508178710938	-880.721374511719	-461.0954895019532	184.8638153076172	-835.8569335937502	-225.2411499023438	943.3475341796877	-1142.514526367188	
1705	8.52	-194.7788848876954	1642.906860351563	-1020.837524414063	-322.1056213378907	1566.160522460938	-1128.105346679688	-318.4179077148438	1566.869140625	-976.1654052734377	-365.8596191406251	1448.122192382813	-1052.876098632813	-387.9954223632814	1128.490478515625	-1046.63330078125	-232.8985443115235	1370.049682617188	-1051.489013671875	-300.3849487304688	1384.376708984375	-1232.9482421875	-312.2559509277344	1179.972778320313	-1292.42236328125	-278.7437133789063	1152.505249023438	-1267.522583007813	-312.5907287597657	1111.642700195313	-1299.612548828125	-329.3772277832032	1057.977661132813	-1300.79638671875	-361.5717773437501	1046.105102539063	-1226.357299804688	-244.6690216064454	825.9725341796877	-1275.165649414063	-285.4899597167969	821.2670898437502	-1326.917724609375	-226.3800201416016	740.3317260742189	-1291.601196289063	-298.3343505859376	1379.199951171875	-878.377380371094	-350.8317260742188	1184.51220703125	-808.466491699219	-309.3987426757813	1157.884399414063	-804.7845458984377	-352.6667785644532	1114.10595703125	-803.987487792969	-345.2993164062501	1051.000122070313	-800.9245605468752	-339.3891601562501	1036.966430664063	-881.9736938476565	-262.9840087890626	819.6511840820315	-788.613952636719	-324.9775695800782	820.550964355469	-762.4758911132814	-257.5927124023438	747.2652587890626	-751.6505737304689	-222.8308563232422	954.660339355469	-925.3254394531252	-389.9326477050782	1020.844055175781	-1033.00634765625	-398.7470703125001	991.4063110351565	-1058.9150390625	-397.3755798339845	993.0203247070315	-1002.635864257813	-320.0746765136719	786.8682250976565	-1188.003540039063	-300.2763977050782	705.5066528320314	-1176.86474609375	-250.2655639648438	703.9714965820314	-1169.851196289063	-335.3078002929688	659.1251220703126	-1157.834106445313	-350.9908752441407	500.6634521484376	-1118.818359375	-309.0711059570313	501.7251281738282	-1006.11474609375	-316.4066467285157	362.4172363281251	-1040.00830078125	-345.5806884765626	303.6985473632813	-1099.202270507813	-313.3453674316407	309.1190795898438	-1065.016967773438	-324.8311767578126	235.9348907470704	-1024.709594726563	-385.2675781250001	106.4544372558594	-1058.608276367188	-354.5404663085938	125.220947265625	-982.781921386719	-442.262176513672	97.861686706543	-1008.238891601563	-240.7222290039063	53.28540039062501	-995.141296386719	-235.7950592041016	48.81291580200197	-1033.611938476563	-260.0034179687501	42.43913650512696	-1082.994262695313	-246.7867126464844	724.2301635742189	-815.837585449219	-191.3545227050782	684.1062011718751	-802.592224121094	-159.4600372314453	693.9951171875001	-812.3223266601565	-193.5453033447266	600.1773681640626	-805.848083496094	-185.6788635253907	552.9852294921876	-807.6807250976565	-155.4401550292969	532.3013305664064	-914.6020507812502	-239.5509948730469	430.450408935547	-828.979675292969	-348.8261413574219	436.118377685547	-830.191101074219	-320.4988708496094	398.2662963867189	-832.0386962890627	-339.3302307128907	358.1774597167969	-870.6074218750002	-489.295623779297	318.4710083007813	-868.183532714844	-447.9605102539064	310.3938293457032	-943.4494628906252	-534.2160644531251	345.5909729003907	-923.298522949219	-415.1053161621095	178.6147918701172	-926.008239746094	-414.8091125488282	175.4876861572266	-878.941345214844	-457.8626403808595	183.0223236083985	-834.2774658203127	-225.3305816650391	943.2974243164065	-1142.337280273438	
1706	8.525	-194.6580810546876	1642.797729492188	-1020.836608886719	-322.1076049804688	1566.375732421875	-1128.0458984375	-318.4578857421876	1566.942504882813	-976.2141723632815	-366.0289001464844	1448.118530273438	-1052.955078125	-388.2529296875001	1128.459838867188	-1046.740234375	-233.1215972900391	1370.144653320313	-1051.544799804688	-300.4318847656251	1384.467407226563	-1232.968505859375	-311.7944335937501	1180.098510742188	-1292.588989257813	-278.2398071289063	1152.720092773438	-1267.78466796875	-311.6760864257813	1111.69970703125	-1299.834716796875	-328.2485351562501	1058.019165039063	-1300.969482421875	-360.5492553710938	1046.067749023438	-1226.656860351563	-242.3490753173829	826.3826293945315	-1275.796630859375	-283.1120605468751	821.554382324219	-1327.474975585938	-223.4099426269532	741.2645874023439	-1292.32470703125	-298.5081787109376	1379.221069335938	-878.478698730469	-350.3479309082032	1184.383544921875	-808.3731689453127	-308.8944091796876	1157.842651367188	-804.907409667969	-352.1303100585938	1114.030883789063	-803.8421630859377	-344.4505004882813	1050.9423828125	-800.9251708984377	-338.7065734863282	1036.743774414063	-881.9553222656252	-261.3703918457032	819.9658813476565	-788.6667480468752	-323.2471008300782	820.4384765625002	-762.3725585937501	-255.636459350586	747.4957275390626	-751.6364746093751	-223.1150817871094	954.8111572265627	-925.1130981445315	-390.0600585937501	1020.953247070313	-1033.085571289063	-398.8821411132814	991.3947753906252	-1059.020263671875	-397.5614624023439	993.074157714844	-1002.703369140625	-319.8671569824219	786.8218383789065	-1187.975830078125	-300.2582702636719	705.5760498046876	-1176.74853515625	-250.3329772949219	703.9467163085939	-1169.642700195313	-335.9747924804688	659.4885864257814	-1157.651733398438	-351.0662841796876	500.6293029785157	-1118.72705078125	-309.2113342285157	501.8214721679689	-1006.06640625	-316.4410400390626	362.4695434570313	-1039.696533203125	-345.6683044433594	303.7991333007813	-1099.185913085938	-314.2573547363282	309.7111816406251	-1065.546020507813	-324.9161071777344	235.9618377685547	-1024.586303710938	-385.2676086425782	106.4675216674805	-1058.606567382813	-354.5422058105469	125.2262420654297	-982.784118652344	-442.2889404296876	97.90506744384768	-1008.228637695313	-240.7151031494141	53.3083953857422	-995.1121826171877	-235.7868041992188	48.80672073364259	-1033.605712890625	-259.8968505859376	42.40168380737305	-1082.96875	-246.9831542968751	724.5372314453126	-815.5812988281252	-191.4977722167969	684.5881958007814	-802.0208740234377	-159.6721343994141	694.5718383789064	-811.6336669921877	-193.5269470214844	600.5941772460939	-805.2064208984377	-185.6327667236328	553.2282104492189	-807.0133056640627	-155.7104644775391	532.7277832031251	-913.8936767578127	-238.5565490722657	430.2523498535157	-828.0366821289065	-347.8587036132813	434.9930725097657	-829.2651977539065	-319.1159057617188	397.2903442382814	-830.8408813476565	-337.5368957519532	356.9281311035157	-869.3059692382815	-487.313934326172	316.1739501953126	-866.9566040039065	-446.7489624023439	308.2922058105469	-942.6547851562502	-532.4142456054689	342.6703491210938	-922.075866699219	-411.8270568847657	176.8184509277344	-924.2943115234377	-411.6329345703126	173.6873016357422	-877.3927001953127	-454.7070312500001	181.1130981445313	-832.5848388671877	-225.3392028808594	943.2224121093752	-1142.212280273438	
1707	8.529999999999999	-194.3078765869141	1642.484619140625	-1020.8408203125	-322.1825256347657	1566.569580078125	-1128.126220703125	-318.4164733886719	1567.1474609375	-976.1560058593752	-366.2371826171876	1448.128295898438	-1053.003784179688	-388.5037841796876	1128.400268554688	-1046.823364257813	-233.3785552978516	1370.174682617188	-1051.612670898438	-300.5368652343751	1384.534301757813	-1232.976928710938	-311.2995605468751	1180.175170898438	-1292.674072265625	-277.8186035156251	1152.883666992188	-1268.0908203125	-311.0554809570313	1111.875122070313	-1300.21044921875	-327.1672058105469	1058.091064453125	-1301.386474609375	-359.4763488769532	1045.783447265625	-1226.990356445313	-240.2021942138672	826.8880615234377	-1276.407592773438	-280.7323913574219	821.8923950195315	-1328.205444335938	-220.5245208740235	741.9118041992189	-1293.1005859375	-298.7124328613282	1379.26171875	-878.5843505859377	-349.8909606933594	1184.314697265625	-808.2734375000002	-308.3273010253907	1157.873779296875	-805.034118652344	-351.3751220703126	1113.961791992188	-803.7862548828127	-343.7101745605469	1050.847290039063	-800.884948730469	-338.0014648437501	1036.738037109375	-881.9342041015627	-259.7839965820313	819.9924926757815	-788.825134277344	-321.4757080078126	820.5293579101565	-762.4199218750001	-253.5120697021485	747.9330444335939	-751.7145996093751	-223.3765716552735	954.9719238281252	-924.9959106445315	-390.2207641601564	1021.023010253906	-1033.143676757813	-399.0592041015626	991.450866699219	-1059.010131835938	-397.8267211914064	993.0540161132815	-1002.743347167969	-319.9951477050782	786.8874511718752	-1187.89599609375	-300.3460998535157	705.5427856445314	-1176.605834960938	-250.3937225341797	703.9350585937501	-1169.46630859375	-335.6899108886719	659.4642333984376	-1157.558227539063	-351.1824035644532	500.6473999023439	-1118.673706054688	-309.3594055175782	501.8161926269532	-1006.004638671875	-316.6246643066407	362.4446411132813	-1039.838012695313	-345.7541198730469	303.7825012207032	-1099.108642578125	-314.3511047363282	309.7226257324219	-1065.572631835938	-324.8686218261719	235.8533020019532	-1024.197509765625	-385.3506774902345	106.415267944336	-1058.644653320313	-354.5349731445313	125.2407608032227	-982.787536621094	-442.5321044921876	98.02981567382815	-1008.289978027344	-240.716293334961	53.30194473266603	-995.1054687500002	-235.8314361572266	48.884090423584	-1033.614379882813	-260.0788574218751	42.44142150878907	-1083.012939453125	-247.3235321044922	724.7675781250001	-815.386901855469	-191.6950988769532	685.0424804687501	-801.5545654296877	-159.8315124511719	694.9407958984376	-811.1582031250002	-193.5343170166016	601.0450439453126	-804.565368652344	-185.5339508056641	553.4560546875001	-806.199890136719	-154.6712646484375	532.9071655273439	-912.8925781250002	-237.4394989013672	429.9844665527345	-826.953308105469	-346.8587341308594	433.8658142089845	-828.211364746094	-317.8437805175782	396.5069274902345	-829.8154907226565	-336.0232543945313	355.8062133789063	-868.319763183594	-485.3887939453126	313.7290954589844	-865.702575683594	-443.9821166992189	305.4737548828126	-941.1734008789065	-530.7680053710939	339.8248291015626	-921.0564575195315	-408.793426513672	174.9589996337891	-922.7105102539065	-408.5620117187501	172.0970764160157	-875.9460449218752	-451.4431457519532	179.1364898681641	-830.9337158203127	-225.3371734619141	943.2395629882815	-1142.104370117188	
